<?xml version="1.0" standalone="yes"?>

<svg version="1.1" viewBox="0.0 0.0 964.0 1196.0" fill="none" stroke="none" stroke-linecap="square" stroke-miterlimit="10" xmlns="http://www.w3.org/2000/svg" xmlns:xlink="http://www.w3.org/1999/xlink"><clipPath id="p.0"><path d="m0 0l964.0 0l0 1196.0l-964.0 0l0 -1196.0z" clip-rule="nonzero"></path></clipPath><g clip-path="url(#p.0)"><path fill="#000000" fill-opacity="0.0" d="m0 0l964.0735 0l0 1196.8661l-964.0735 0z" fill-rule="nonzero"></path><path fill="#000000" fill-opacity="0.0" d="m808.7087 533.19684c-85.45148 -0.3661499 -400.4239 7.1693115 -512.7087 -2.1968384c-112.284775 -9.36615 -126.24016 -18.279968 -161.0 -54.0c-34.759842 -35.72003 -39.632545 -133.60019 -47.55905 -160.32022" fill-rule="nonzero"></path><path stroke="#000000" stroke-width="16.0" stroke-linejoin="round" stroke-linecap="butt" d="m808.7087 533.19684c-85.45148 -0.3661499 -400.4239 7.1693115 -512.7087 -2.1968384c-112.284775 -9.36615 -126.24016 -18.279968 -161.0 -54.0c-34.759842 -35.72003 -39.632545 -133.60019 -47.55905 -160.32022" fill-rule="nonzero"></path><path fill="#000000" fill-opacity="0.0" d="m97.05774 102.64304l804.22046 -1.354332" fill-rule="nonzero"></path><path stroke="#000000" stroke-width="16.0" stroke-linejoin="round" stroke-linecap="butt" d="m97.05774 102.64304l804.22046 -1.354332" fill-rule="nonzero"></path><path fill="#000000" fill-opacity="0.0" d="m170.78027 20.674541l66.58269 0l0 35.307087l-66.58269 0z" fill-rule="nonzero"></path><path fill="#000000" d="m191.9209 49.652042l0 3.0625l-11.546875 0q0.1875 -1.734375 1.125 -3.28125q0.9375 -1.5625 3.703125 -4.125q2.234375 -2.078125 2.734375 -2.8125q0.6875 -1.015625 0.6875 -2.015625q0 -1.109375 -0.59375 -1.6875q-0.59375 -0.59375 -1.640625 -0.59375q-1.03125 0 -1.640625 0.625q-0.609375 0.609375 -0.703125 2.046875l-3.28125 -0.328125q0.296875 -2.71875 1.84375 -3.890625q1.546875 -1.1875 3.859375 -1.1875q2.546875 0 4.0 1.375q1.453125 1.359375 1.453125 3.40625q0 1.15625 -0.421875 2.203125q-0.40625 1.046875 -1.3125 2.203125q-0.59375 0.765625 -2.15625 2.203125q-1.5625 1.421875 -1.984375 1.890625q-0.40625 0.46875 -0.65625 0.90625l6.53125 0z" fill-rule="nonzero"></path><path fill="#000000" fill-opacity="0.0" d="m99.1706 154.26509l6.803154 -38.803146" fill-rule="nonzero"></path><path stroke="#000000" stroke-width="2.0" stroke-linejoin="round" stroke-linecap="butt" d="m99.1706 154.26509l4.730858 -26.983429" fill-rule="evenodd"></path><path fill="#000000" stroke="#000000" stroke-width="2.0" stroke-linecap="butt" d="m107.1553 127.852135l-1.6864548 -9.510315l-4.821213 8.369354z" fill-rule="evenodd"></path><path fill="#000000" fill-opacity="0.0" d="m74.72966 143.39633l40.755905 0l0 32.59842l-40.755905 0z" fill-rule="nonzero"></path><path fill="#000000" d="m93.182785 175.43633l-3.296875 0l0 -12.40625q-1.8125 1.6875 -4.25 2.484375l0 -2.984375q1.28125 -0.421875 2.796875 -1.59375q1.515625 -1.1875 2.078125 -2.75l2.671875 0l0 17.25z" fill-rule="nonzero"></path><path fill="#000000" fill-opacity="0.0" d="m682.7803 20.674541l66.58264 0l0 35.307087l-66.58264 0z" fill-rule="nonzero"></path><path fill="#000000" d="m692.6865 48.152042l3.1875 -0.390625q0.15625 1.21875 0.8125 1.875q0.671875 0.640625 1.625 0.640625q1.015625 0 1.703125 -0.765625q0.703125 -0.78125 0.703125 -2.09375q0 -1.25 -0.671875 -1.96875q-0.65625 -0.734375 -1.625 -0.734375q-0.625 0 -1.5 0.25l0.359375 -2.6875q1.328125 0.046875 2.03125 -0.5625q0.703125 -0.625 0.703125 -1.640625q0 -0.875 -0.515625 -1.390625q-0.515625 -0.515625 -1.359375 -0.515625q-0.84375 0 -1.453125 0.59375q-0.59375 0.578125 -0.71875 1.703125l-3.03125 -0.515625q0.3125 -1.5625 0.953125 -2.484375q0.640625 -0.9375 1.78125 -1.46875q1.140625 -0.53125 2.5625 -0.53125q2.421875 0 3.890625 1.546875q1.203125 1.265625 1.203125 2.859375q0 2.265625 -2.46875 3.609375q1.46875 0.3125 2.34375 1.421875q0.890625 1.09375 0.890625 2.65625q0 2.265625 -1.65625 3.859375q-1.640625 1.59375 -4.109375 1.59375q-2.328125 0 -3.859375 -1.34375q-1.53125 -1.34375 -1.78125 -3.515625z" fill-rule="nonzero"></path><path fill="#000000" fill-opacity="0.0" d="m662.18896 86.94226l0 -23.09449l67.92389 0l0 20.377953" fill-rule="nonzero"></path><path stroke="#000000" stroke-width="2.0" stroke-linejoin="round" stroke-linecap="butt" d="m662.18896 86.94226l0 -23.09449l67.92389 0l0 20.377953" fill-rule="nonzero"></path><path fill="#000000" fill-opacity="0.0" d="m797.4049 20.674541l66.5827 0l0 35.307087l-66.5827 0z" fill-rule="nonzero"></path><path fill="#000000" d="m813.8893 52.714542l0 -3.453125l-7.03125 0l0 -2.890625l7.453125 -10.90625l2.765625 0l0 10.890625l2.125 0l0 2.90625l-2.125 0l0 3.453125l-3.1875 0zm0 -6.359375l0 -5.859375l-3.953125 5.859375l3.953125 0z" fill-rule="nonzero"></path><path fill="#000000" fill-opacity="0.0" d="m766.18896 86.94226l0 -23.09449l97.796814 0l0 20.377953" fill-rule="nonzero"></path><path stroke="#000000" stroke-width="2.0" stroke-linejoin="round" stroke-linecap="butt" d="m766.18896 86.94226l0 -23.09449l97.796814 0l0 20.377953" fill-rule="nonzero"></path><path fill="#000000" fill-opacity="0.0" d="m103.56693 690.20996l782.48816 0l0 91.27557l-782.48816 0z" fill-rule="nonzero"></path><path fill="#000000" fill-opacity="0.0" d="m399.14566 727.97565l66.58267 0l0 35.307068l-66.58267 0z" fill-rule="nonzero"></path><path fill="#000000" fill-opacity="0.0" d="m150.18898 86.94226l0 -23.09449l67.923874 0l0 20.377953" fill-rule="nonzero"></path><path stroke="#000000" stroke-width="2.0" stroke-linejoin="round" stroke-linecap="butt" d="m150.18898 86.94226l0 -23.09449l67.923874 0l0 20.377953" fill-rule="nonzero"></path><path fill="#000000" fill-opacity="0.0" d="m313.05774 662.64307l344.9134 1.1968384" fill-rule="nonzero"></path><path stroke="#000000" stroke-width="16.0" stroke-linejoin="round" stroke-linecap="butt" d="m313.05774 662.64307l344.9134 1.1968384" fill-rule="nonzero"></path><path fill="#000000" fill-opacity="0.0" d="m283.9239 828.2257l518.51965 -1.3858032" fill-rule="nonzero"></path><path stroke="#000000" stroke-width="16.0" stroke-linejoin="round" stroke-linecap="butt" d="m283.9239 828.2257l518.51965 -1.3858032" fill-rule="nonzero"></path><path fill="#9900ff" d="m313.20734 163.4042l0 0c0 -6.5491486 9.123535 -11.858276 20.37796 -11.858276l0 0c11.254425 0 20.37796 5.309128 20.37796 11.858276l0 0c0 6.5491333 -9.123535 11.858261 -20.37796 11.858261l0 0c-11.254425 0 -20.37796 -5.309128 -20.37796 -11.858261z" fill-rule="nonzero"></path><path stroke="#9900ff" stroke-width="2.0" stroke-linejoin="round" stroke-linecap="butt" d="m313.20734 163.4042l0 0c0 -6.5491486 9.123535 -11.858276 20.37796 -11.858276l0 0c11.254425 0 20.37796 5.309128 20.37796 11.858276l0 0c0 6.5491333 -9.123535 11.858261 -20.37796 11.858261l0 0c-11.254425 0 -20.37796 -5.309128 -20.37796 -11.858261z" fill-rule="nonzero"></path><path fill="#9900ff" d="m353.20734 163.4042l0 0c0 -6.5491486 9.123535 -11.858276 20.37796 -11.858276l0 0c11.254425 0 20.37796 5.309128 20.37796 11.858276l0 0c0 6.5491333 -9.123535 11.858261 -20.37796 11.858261l0 0c-11.254425 0 -20.37796 -5.309128 -20.37796 -11.858261z" fill-rule="nonzero"></path><path stroke="#9900ff" stroke-width="2.0" stroke-linejoin="round" stroke-linecap="butt" d="m353.20734 163.4042l0 0c0 -6.5491486 9.123535 -11.858276 20.37796 -11.858276l0 0c11.254425 0 20.37796 5.309128 20.37796 11.858276l0 0c0 6.5491333 -9.123535 11.858261 -20.37796 11.858261l0 0c-11.254425 0 -20.37796 -5.309128 -20.37796 -11.858261z" fill-rule="nonzero"></path><path fill="#9900ff" d="m329.20734 179.4042l0 0c0 -6.5491486 9.123535 -11.858276 20.37796 -11.858276l0 0c11.254425 0 20.37796 5.309128 20.37796 11.858276l0 0c0 6.5491333 -9.123535 11.858261 -20.37796 11.858261l0 0c-11.254425 0 -20.37796 -5.309128 -20.37796 -11.858261z" fill-rule="nonzero"></path><path stroke="#9900ff" stroke-width="2.0" stroke-linejoin="round" stroke-linecap="butt" d="m329.20734 179.4042l0 0c0 -6.5491486 9.123535 -11.858276 20.37796 -11.858276l0 0c11.254425 0 20.37796 5.309128 20.37796 11.858276l0 0c0 6.5491333 -9.123535 11.858261 -20.37796 11.858261l0 0c-11.254425 0 -20.37796 -5.309128 -20.37796 -11.858261z" fill-rule="nonzero"></path><path fill="#9900ff" d="m361.20734 683.4042l0 0c0 -6.5491333 9.123535 -11.858215 20.37796 -11.858215l0 0c11.254425 0 20.37796 5.309082 20.37796 11.858215l0 0c0 6.5491943 -9.123535 11.858276 -20.37796 11.858276l0 0c-11.254425 0 -20.37796 -5.309082 -20.37796 -11.858276z" fill-rule="nonzero"></path><path stroke="#9900ff" stroke-width="2.0" stroke-linejoin="round" stroke-linecap="butt" d="m361.20734 683.4042l0 0c0 -6.5491333 9.123535 -11.858215 20.37796 -11.858215l0 0c11.254425 0 20.37796 5.309082 20.37796 11.858215l0 0c0 6.5491943 -9.123535 11.858276 -20.37796 11.858276l0 0c-11.254425 0 -20.37796 -5.309082 -20.37796 -11.858276z" fill-rule="nonzero"></path><path fill="#9900ff" d="m401.20734 683.4042l0 0c0 -6.5491333 9.123535 -11.858215 20.37796 -11.858215l0 0c11.254425 0 20.37796 5.309082 20.37796 11.858215l0 0c0 6.5491943 -9.123535 11.858276 -20.37796 11.858276l0 0c-11.254425 0 -20.37796 -5.309082 -20.37796 -11.858276z" fill-rule="nonzero"></path><path stroke="#9900ff" stroke-width="2.0" stroke-linejoin="round" stroke-linecap="butt" d="m401.20734 683.4042l0 0c0 -6.5491333 9.123535 -11.858215 20.37796 -11.858215l0 0c11.254425 0 20.37796 5.309082 20.37796 11.858215l0 0c0 6.5491943 -9.123535 11.858276 -20.37796 11.858276l0 0c-11.254425 0 -20.37796 -5.309082 -20.37796 -11.858276z" fill-rule="nonzero"></path><path fill="#9900ff" d="m377.20734 699.4042l0 0c0 -6.5491333 9.123535 -11.858215 20.37796 -11.858215l0 0c11.254425 0 20.37796 5.309082 20.37796 11.858215l0 0c0 6.5491943 -9.123535 11.858276 -20.37796 11.858276l0 0c-11.254425 0 -20.37796 -5.309082 -20.37796 -11.858276z" fill-rule="nonzero"></path><path stroke="#9900ff" stroke-width="2.0" stroke-linejoin="round" stroke-linecap="butt" d="m377.20734 699.4042l0 0c0 -6.5491333 9.123535 -11.858215 20.37796 -11.858215l0 0c11.254425 0 20.37796 5.309082 20.37796 11.858215l0 0c0 6.5491943 -9.123535 11.858276 -20.37796 11.858276l0 0c-11.254425 0 -20.37796 -5.309082 -20.37796 -11.858276z" fill-rule="nonzero"></path><path fill="#0000ff" d="m472.22232 171.5659l0 0c10.967407 11.25444 9.176544 30.777634 -4.0 43.606293c-13.176575 12.828674 -32.749115 14.104828 -43.716553 2.8504028l10.193573 -9.924423l0 0c5.4837036 5.6272125 16.047028 4.232605 23.593842 -3.1149445c7.546814 -7.3475494 9.219269 -17.865692 3.7355652 -23.492905z" fill-rule="nonzero"></path><path stroke="#000000" stroke-width="2.0" stroke-linejoin="round" stroke-linecap="butt" d="m472.22232 171.5659l0 0c10.967407 11.25444 9.176544 30.777634 -4.0 43.606293c-13.176575 12.828674 -32.749115 14.104828 -43.716553 2.8504028l10.193573 -9.924423l0 0c5.4837036 5.6272125 16.047028 4.232605 23.593842 -3.1149445c7.546814 -7.3475494 9.219269 -17.865692 3.7355652 -23.492905z" fill-rule="nonzero"></path><path fill="#0000ff" d="m488.22232 699.5659l0 0c10.967407 11.254456 9.176544 30.777649 -4.0 43.606323c-13.176575 12.828674 -32.749115 14.104797 -43.716553 2.8504028l10.193573 -9.924438l0 0c5.4837036 5.6271973 16.047028 4.232605 23.593842 -3.1149292c7.546814 -7.347534 9.219269 -17.865662 3.7355652 -23.49292z" fill-rule="nonzero"></path><path stroke="#000000" stroke-width="2.0" stroke-linejoin="round" stroke-linecap="butt" d="m488.22232 699.5659l0 0c10.967407 11.254456 9.176544 30.777649 -4.0 43.606323c-13.176575 12.828674 -32.749115 14.104797 -43.716553 2.8504028l10.193573 -9.924438l0 0c5.4837036 5.6271973 16.047028 4.232605 23.593842 -3.1149292c7.546814 -7.347534 9.219269 -17.865662 3.7355652 -23.49292z" fill-rule="nonzero"></path><path fill="#0000ff" d="m366.5525 728.85425l0 0c-6.627411 14.246338 -25.516052 19.506104 -42.188965 11.748047c-16.672913 -7.7581177 -24.816406 -25.596191 -18.188995 -39.84253l12.897125 6.0011597c-3.3137207 7.123169 1.7418213 16.5 11.29187 20.943726c9.550018 4.4437256 19.97815 2.2716064 23.29187 -4.8515625z" fill-rule="nonzero"></path><path stroke="#000000" stroke-width="2.0" stroke-linejoin="round" stroke-linecap="butt" d="m366.5525 728.85425l0 0c-6.627411 14.246338 -25.516052 19.506104 -42.188965 11.748047c-16.672913 -7.7581177 -24.816406 -25.596191 -18.188995 -39.84253l12.897125 6.0011597c-3.3137207 7.123169 1.7418213 16.5 11.29187 20.943726c9.550018 4.4437256 19.97815 2.2716064 23.29187 -4.8515625z" fill-rule="nonzero"></path><path fill="#000000" fill-opacity="0.0" d="m618.7803 460.67453l66.58264 0l0 35.3071l-66.58264 0z" fill-rule="nonzero"></path><path fill="#0000ff" d="m343.1385 341.05295l0 0c10.254242 -11.906738 29.86206 -11.829193 43.795288 0.17321777c13.933228 12.002411 16.91565 31.384613 6.6614075 43.29135l-10.778412 -9.28479c5.127136 -5.9533386 2.8140259 -16.352448 -5.1664734 -23.22702c-7.9804688 -6.8745728 -18.606293 -7.6213684 -23.733398 -1.6679993z" fill-rule="nonzero"></path><path stroke="#000000" stroke-width="2.0" stroke-linejoin="round" stroke-linecap="butt" d="m343.1385 341.05295l0 0c10.254242 -11.906738 29.86206 -11.829193 43.795288 0.17321777c13.933228 12.002411 16.91565 31.384613 6.6614075 43.29135l-10.778412 -9.28479c5.127136 -5.9533386 2.8140259 -16.352448 -5.1664734 -23.22702c-7.9804688 -6.8745728 -18.606293 -7.6213684 -23.733398 -1.6679993z" fill-rule="nonzero"></path><path fill="#0000ff" d="m437.34793 459.18414l0 0c-7.723297 13.681 -26.964478 17.438995 -42.97638 8.393707c-16.011902 -9.045319 -22.73117 -27.468597 -15.007874 -41.149628l12.383789 6.9957275l0 0c-3.8616333 6.840515 0.44369507 16.586395 9.616211 21.768066c9.172546 5.1816406 19.73883 3.8368835 23.600464 -3.003601z" fill-rule="nonzero"></path><path stroke="#000000" stroke-width="2.0" stroke-linejoin="round" stroke-linecap="butt" d="m437.34793 459.18414l0 0c-7.723297 13.681 -26.964478 17.438995 -42.97638 8.393707c-16.011902 -9.045319 -22.73117 -27.468597 -15.007874 -41.149628l12.383789 6.9957275l0 0c-3.8616333 6.840515 0.44369507 16.586395 9.616211 21.768066c9.172546 5.1816406 19.73883 3.8368835 23.600464 -3.003601z" fill-rule="nonzero"></path><path fill="#000000" fill-opacity="0.0" d="m255.94226 206.17586l53.5748 0l0 44.88188l-53.5748 0z" fill-rule="nonzero"></path><path fill="#000000" d="m266.00476 233.79398l3.28125 -0.34375q0.140625 1.125 0.828125 1.78125q0.703125 0.640625 1.609375 0.640625q1.03125 0 1.734375 -0.828125q0.71875 -0.84375 0.71875 -2.53125q0 -1.59375 -0.71875 -2.375q-0.703125 -0.796875 -1.828125 -0.796875q-1.421875 0 -2.546875 1.25l-2.671875 -0.375l1.6875 -8.953125l8.703125 0l0 3.09375l-6.203125 0l-0.515625 2.90625q1.09375 -0.546875 2.25 -0.546875q2.1875 0 3.703125 1.59375q1.53125 1.59375 1.53125 4.140625q0 2.125 -1.234375 3.78125q-1.671875 2.28125 -4.65625 2.28125q-2.375 0 -3.875 -1.28125q-1.5 -1.28125 -1.796875 -3.4375z" fill-rule="nonzero"></path><path fill="#000000" fill-opacity="0.0" d="m282.72964 206.17586l28.314972 -23.118118" fill-rule="nonzero"></path><path stroke="#000000" stroke-width="2.0" stroke-linejoin="round" stroke-linecap="butt" d="m282.72964 206.17586l19.019653 -15.528839" fill-rule="evenodd"></path><path fill="#000000" stroke="#000000" stroke-width="2.0" stroke-linecap="butt" d="m303.83856 193.20592l4.9412537 -8.299042l-9.119751 3.181244z" fill-rule="evenodd"></path><path fill="#000000" fill-opacity="0.0" d="m536.76904 231.06036l-49.763794 -17.795273" fill-rule="nonzero"></path><path stroke="#000000" stroke-width="2.0" stroke-linejoin="round" stroke-linecap="butt" d="m536.76904 231.06036l-38.464508 -13.754715" fill-rule="evenodd"></path><path fill="#000000" stroke="#000000" stroke-width="2.0" stroke-linecap="butt" d="m499.41687 214.1951l-9.658539 0.054473877l7.4338684 6.1666565z" fill-rule="evenodd"></path><path fill="#000000" fill-opacity="0.0" d="m547.5853 211.50919l31.842468 0l0 44.881897l-31.842468 0z" fill-rule="nonzero"></path><path fill="#000000" d="m568.7572 230.58044l-3.1875 0.34375q-0.109375 -0.984375 -0.609375 -1.453125q-0.484375 -0.46875 -1.265625 -0.46875q-1.046875 0 -1.765625 0.9375q-0.71875 0.9375 -0.90625 3.90625q1.21875 -1.453125 3.046875 -1.453125q2.0625 0 3.53125 1.578125q1.484375 1.5625 1.484375 4.046875q0 2.640625 -1.546875 4.234375q-1.546875 1.59375 -3.984375 1.59375q-2.59375 0 -4.28125 -2.015625q-1.671875 -2.03125 -1.671875 -6.640625q0 -4.71875 1.75 -6.796875q1.75 -2.09375 4.53125 -2.09375q1.96875 0 3.25 1.09375q1.28125 1.09375 1.625 3.1875zm-7.453125 7.171875q0 1.609375 0.734375 2.484375q0.734375 0.875 1.6875 0.875q0.90625 0 1.515625 -0.71875q0.609375 -0.71875 0.609375 -2.34375q0 -1.671875 -0.65625 -2.453125q-0.65625 -0.78125 -1.640625 -0.78125q-0.9375 0 -1.59375 0.75q-0.65625 0.734375 -0.65625 2.1875z" fill-rule="nonzero"></path><path fill="#000000" fill-opacity="0.0" d="m307.9239 1100.2257l518.51965 -1.3858643" fill-rule="nonzero"></path><path stroke="#000000" stroke-width="16.0" stroke-linejoin="round" stroke-linecap="butt" d="m307.9239 1100.2257l518.51965 -1.3858643" fill-rule="nonzero"></path><path fill="#00ff00" d="m776.2844 155.94606c-9.951111 0.33306885 -21.943298 3.332199 -26.02594 9.996567c-4.0825806 6.664383 -2.0419922 24.657974 1.5302734 29.9897c3.5722046 5.331726 10.207214 1.6672058 19.90326 2.0006561c9.696045 0.33343506 31.894104 5.664795 38.27289 0c6.378845 -5.664795 5.6134033 -26.990967 0 -33.988785c-5.6134033 -6.997818 -23.729431 -8.331207 -33.68048 -7.9981384z" fill-rule="nonzero"></path><path stroke="#000000" stroke-width="2.0" stroke-linejoin="round" stroke-linecap="butt" d="m776.2844 155.94606c-9.951111 0.33306885 -21.943298 3.332199 -26.02594 9.996567c-4.0825806 6.664383 -2.0419922 24.657974 1.5302734 29.9897c3.5722046 5.331726 10.207214 1.6672058 19.90326 2.0006561c9.696045 0.33343506 31.894104 5.664795 38.27289 0c6.378845 -5.664795 5.6134033 -26.990967 0 -33.988785c-5.6134033 -6.997818 -23.729431 -8.331207 -33.68048 -7.9981384z" fill-rule="nonzero"></path><path fill="#000000" fill-opacity="0.0" d="m733.5276 249.59842l16.5354 -40.188965" fill-rule="nonzero"></path><path stroke="#000000" stroke-width="2.0" stroke-linejoin="round" stroke-linecap="butt" d="m733.5276 249.59842l11.969482 -29.091568" fill-rule="evenodd"></path><path fill="#000000" stroke="#000000" stroke-width="2.0" stroke-linecap="butt" d="m748.55206 221.7638l0.3984375 -9.650467l-6.508423 7.136566z" fill-rule="evenodd"></path><path fill="#000000" fill-opacity="0.0" d="m698.07874 251.96063l40.283447 0l0 53.039368l-40.283447 0z" fill-rule="nonzero"></path><path fill="#000000" d="m708.09436 270.11002l0 -3.0625l11.265625 0l0 2.390625q-1.390625 1.375 -2.84375 3.953125q-1.4375 2.5625 -2.1875 5.453125q-0.75 2.875 -0.75 5.15625l-3.171875 0q0.078125 -3.5625 1.46875 -7.265625q1.390625 -3.703125 3.71875 -6.625l-7.5 0z" fill-rule="nonzero"></path><path fill="#000000" fill-opacity="0.0" d="m329.99872 662.99915c-24.545502 -0.08441162 -118.55992 -0.42211914 -147.27296 -0.5065918c-28.713028 -0.08441162 -15.2812805 -0.4527588 -25.005249 0c-9.7239685 0.4527588 -23.384949 0.4654541 -33.338577 2.7165527c-9.953636 2.2510986 -18.444885 4.9033203 -26.383202 10.790039c-7.938324 5.8867188 -16.912079 12.290894 -21.24672 24.530151c-4.334648 12.239319 -4.6356125 34.32721 -4.761154 48.905518c-0.12554932 14.578308 -1.7419128 27.398071 4.0078735 38.56433c5.7497787 11.166199 14.157478 22.099731 30.490814 28.433044c16.333328 6.333374 44.765526 7.780884 67.50918 9.566956c22.743668 1.7860718 49.45276 0.8162842 68.95276 1.1495972c19.5 0.333313 33.206024 0.5419922 48.04724 0.85040283c14.841217 0.30841064 34.166687 0.833313 41.0 1.0" fill-rule="nonzero"></path><path stroke="#000000" stroke-width="16.0" stroke-linejoin="round" stroke-linecap="butt" d="m329.99872 662.99915c-24.545502 -0.08441162 -118.55992 -0.42211914 -147.27296 -0.5065918c-28.713028 -0.08441162 -15.2812805 -0.4527588 -25.005249 0c-9.7239685 0.4527588 -23.384949 0.4654541 -33.338577 2.7165527c-9.953636 2.2510986 -18.444885 4.9033203 -26.383202 10.790039c-7.938324 5.8867188 -16.912079 12.290894 -21.24672 24.530151c-4.334648 12.239319 -4.6356125 34.32721 -4.761154 48.905518c-0.12554932 14.578308 -1.7419128 27.398071 4.0078735 38.56433c5.7497787 11.166199 14.157478 22.099731 30.490814 28.433044c16.333328 6.333374 44.765526 7.780884 67.50918 9.566956c22.743668 1.7860718 49.45276 0.8162842 68.95276 1.1495972c19.5 0.333313 33.206024 0.5419922 48.04724 0.85040283c14.841217 0.30841064 34.166687 0.833313 41.0 1.0" fill-rule="nonzero"></path><path fill="#00ff00" d="m680.2844 459.94608c-9.95105 0.33306885 -21.943298 3.3321838 -26.025879 9.9965515c-4.0826416 6.6643677 -2.0420532 24.65799 1.5302124 29.989716c3.5722656 5.331726 10.207275 1.6672058 19.90326 2.0006409c9.696045 0.33343506 31.894104 5.664795 38.27295 0c6.378784 -5.664795 5.6134033 -26.990967 0 -33.98877c-5.6134033 -6.9978333 -23.729431 -8.331207 -33.680542 -7.9981384z" fill-rule="nonzero"></path><path stroke="#000000" stroke-width="2.0" stroke-linejoin="round" stroke-linecap="butt" d="m680.2844 459.94608c-9.95105 0.33306885 -21.943298 3.3321838 -26.025879 9.9965515c-4.0826416 6.6643677 -2.0420532 24.65799 1.5302124 29.989716c3.5722656 5.331726 10.207275 1.6672058 19.90326 2.0006409c9.696045 0.33343506 31.894104 5.664795 38.27295 0c6.378784 -5.664795 5.6134033 -26.990967 0 -33.98877c-5.6134033 -6.9978333 -23.729431 -8.331207 -33.680542 -7.9981384z" fill-rule="nonzero"></path><path fill="#00ff00" d="m408.28445 763.94604c-9.95108 0.33306885 -21.943298 3.3322144 -26.02591 9.996582c-4.082611 6.6643677 -2.0420227 24.657959 1.5302124 29.989685c3.5722656 5.331726 10.207245 1.6672363 19.90329 2.0006714c9.696014 0.33343506 31.894073 5.664795 38.27292 0c6.3788147 -5.664795 5.6134033 -26.990967 0 -33.98877c-5.613434 -6.9978027 -23.729431 -8.331238 -33.68051 -7.998169z" fill-rule="nonzero"></path><path stroke="#000000" stroke-width="2.0" stroke-linejoin="round" stroke-linecap="butt" d="m408.28445 763.94604c-9.95108 0.33306885 -21.943298 3.3322144 -26.02591 9.996582c-4.082611 6.6643677 -2.0420227 24.657959 1.5302124 29.989685c3.5722656 5.331726 10.207245 1.6672363 19.90329 2.0006714c9.696014 0.33343506 31.894073 5.664795 38.27292 0c6.3788147 -5.664795 5.6134033 -26.990967 0 -33.98877c-5.613434 -6.9978027 -23.729431 -8.331238 -33.68051 -7.998169z" fill-rule="nonzero"></path><path fill="#000000" fill-opacity="0.0" d="m383.14566 1095.9756l66.58267 0l0 35.30713l-66.58267 0z" fill-rule="nonzero"></path><path fill="#000000" fill-opacity="0.0" d="m297.05774 1030.6431l344.9134 1.1967773" fill-rule="nonzero"></path><path stroke="#000000" stroke-width="16.0" stroke-linejoin="round" stroke-linecap="butt" d="m297.05774 1030.6431l344.9134 1.1967773" fill-rule="nonzero"></path><path fill="#9900ff" d="m345.20734 1051.4042l0 0c0 -6.5490723 9.123535 -11.858276 20.37796 -11.858276l0 0c11.254425 0 20.37796 5.309204 20.37796 11.858276l0 0c0 6.5491943 -9.123535 11.858276 -20.37796 11.858276l0 0c-11.254425 0 -20.37796 -5.309082 -20.37796 -11.858276z" fill-rule="nonzero"></path><path stroke="#9900ff" stroke-width="2.0" stroke-linejoin="round" stroke-linecap="butt" d="m345.20734 1051.4042l0 0c0 -6.5490723 9.123535 -11.858276 20.37796 -11.858276l0 0c11.254425 0 20.37796 5.309204 20.37796 11.858276l0 0c0 6.5491943 -9.123535 11.858276 -20.37796 11.858276l0 0c-11.254425 0 -20.37796 -5.309082 -20.37796 -11.858276z" fill-rule="nonzero"></path><path fill="#9900ff" d="m385.20734 1051.4042l0 0c0 -6.5490723 9.123535 -11.858276 20.37796 -11.858276l0 0c11.254425 0 20.37796 5.309204 20.37796 11.858276l0 0c0 6.5491943 -9.123535 11.858276 -20.37796 11.858276l0 0c-11.254425 0 -20.37796 -5.309082 -20.37796 -11.858276z" fill-rule="nonzero"></path><path stroke="#9900ff" stroke-width="2.0" stroke-linejoin="round" stroke-linecap="butt" d="m385.20734 1051.4042l0 0c0 -6.5490723 9.123535 -11.858276 20.37796 -11.858276l0 0c11.254425 0 20.37796 5.309204 20.37796 11.858276l0 0c0 6.5491943 -9.123535 11.858276 -20.37796 11.858276l0 0c-11.254425 0 -20.37796 -5.309082 -20.37796 -11.858276z" fill-rule="nonzero"></path><path fill="#9900ff" d="m361.20734 1067.4042l0 0c0 -6.5490723 9.123535 -11.858276 20.37796 -11.858276l0 0c11.254425 0 20.37796 5.309204 20.37796 11.858276l0 0c0 6.5491943 -9.123535 11.858276 -20.37796 11.858276l0 0c-11.254425 0 -20.37796 -5.309082 -20.37796 -11.858276z" fill-rule="nonzero"></path><path stroke="#9900ff" stroke-width="2.0" stroke-linejoin="round" stroke-linecap="butt" d="m361.20734 1067.4042l0 0c0 -6.5490723 9.123535 -11.858276 20.37796 -11.858276l0 0c11.254425 0 20.37796 5.309204 20.37796 11.858276l0 0c0 6.5491943 -9.123535 11.858276 -20.37796 11.858276l0 0c-11.254425 0 -20.37796 -5.309082 -20.37796 -11.858276z" fill-rule="nonzero"></path><path fill="#0000ff" d="m417.6597 1058.8114l0 0c0 15.716187 -14.905029 28.449585 -33.29135 28.440918c-18.386292 -0.008666992 -33.29132 -12.756226 -33.29132 -28.472412l14.2283325 0.006713867l0 0c0 7.858032 8.53479 14.2323 19.062988 14.237305c10.528198 0.005004883 19.062988 -6.361206 19.062988 -14.21936z" fill-rule="nonzero"></path><path stroke="#000000" stroke-width="2.0" stroke-linejoin="round" stroke-linecap="butt" d="m417.6597 1058.8114l0 0c0 15.716187 -14.905029 28.449585 -33.29135 28.440918c-18.386292 -0.008666992 -33.29132 -12.756226 -33.29132 -28.472412l14.2283325 0.006713867l0 0c0 7.858032 8.53479 14.2323 19.062988 14.237305c10.528198 0.005004883 19.062988 -6.361206 19.062988 -14.21936z" fill-rule="nonzero"></path><path fill="#ffff00" d="m544.6116 526.72705l87.433044 0l0 17.711243l-87.433044 6.1035156E-5z" fill-rule="nonzero"></path><path fill="#000000" fill-opacity="0.0" d="m555.5407 526.72705l0 17.711243m65.57477 -17.711243l0 17.711243" fill-rule="nonzero"></path><path fill="#000000" fill-opacity="0.0" d="m544.6116 526.72705l87.433044 0l0 17.711243l-87.433044 6.1035156E-5z" fill-rule="nonzero"></path><path stroke="#000000" stroke-width="2.0" stroke-linejoin="round" stroke-linecap="butt" d="m555.5407 526.72705l0 17.711243m65.57477 -17.711243l0 17.711243" fill-rule="nonzero"></path><path stroke="#000000" stroke-width="2.0" stroke-linejoin="round" stroke-linecap="butt" d="m544.6116 526.72705l87.433044 0l0 17.711243l-87.433044 6.1035156E-5z" fill-rule="nonzero"></path><path fill="#ffff00" d="m656.6116 92.456696l87.433044 0l0 17.795273l-87.433044 0z" fill-rule="nonzero"></path><path fill="#000000" fill-opacity="0.0" d="m667.5407 92.456696l0 17.795273m65.57477 -17.795273l0 17.795273" fill-rule="nonzero"></path><path fill="#000000" fill-opacity="0.0" d="m656.6116 92.456696l87.433044 0l0 17.795273l-87.433044 0z" fill-rule="nonzero"></path><path stroke="#000000" stroke-width="2.0" stroke-linejoin="round" stroke-linecap="butt" d="m667.5407 92.456696l0 17.795273m65.57477 -17.795273l0 17.795273" fill-rule="nonzero"></path><path stroke="#000000" stroke-width="2.0" stroke-linejoin="round" stroke-linecap="butt" d="m656.6116 92.456696l87.433044 0l0 17.795273l-87.433044 0z" fill-rule="nonzero"></path><path fill="#00ffff" d="m768.6116 92.456696l97.79785 0l0 17.795273l-97.79785 0z" fill-rule="nonzero"></path><path fill="#000000" fill-opacity="0.0" d="m780.8363 92.456696l0 17.795273m73.34839 -17.795273l0 17.795273" fill-rule="nonzero"></path><path fill="#000000" fill-opacity="0.0" d="m768.6116 92.456696l97.79785 0l0 17.795273l-97.79785 0z" fill-rule="nonzero"></path><path stroke="#000000" stroke-width="2.0" stroke-linejoin="round" stroke-linecap="butt" d="m780.8363 92.456696l0 17.795273m73.34839 -17.795273l0 17.795273" fill-rule="nonzero"></path><path stroke="#000000" stroke-width="2.0" stroke-linejoin="round" stroke-linecap="butt" d="m768.6116 92.456696l97.79785 0l0 17.795273l-97.79785 0z" fill-rule="nonzero"></path><path fill="#00ffff" d="m688.6116 524.45667l97.79785 0l0 17.795288l-97.79785 0z" fill-rule="nonzero"></path><path fill="#000000" fill-opacity="0.0" d="m700.8363 524.45667l0 17.795288m73.34839 -17.795288l0 17.795288" fill-rule="nonzero"></path><path fill="#000000" fill-opacity="0.0" d="m688.6116 524.45667l97.79785 0l0 17.795288l-97.79785 0z" fill-rule="nonzero"></path><path stroke="#000000" stroke-width="2.0" stroke-linejoin="round" stroke-linecap="butt" d="m700.8363 524.45667l0 17.795288m73.34839 -17.795288l0 17.795288" fill-rule="nonzero"></path><path stroke="#000000" stroke-width="2.0" stroke-linejoin="round" stroke-linecap="butt" d="m688.6116 524.45667l97.79785 0l0 17.795288l-97.79785 0z" fill-rule="nonzero"></path><path fill="#ffff00" d="m352.61154 1092.4567l87.433075 0l0 17.795288l-87.433075 0z" fill-rule="nonzero"></path><path fill="#000000" fill-opacity="0.0" d="m363.54068 1092.4567l0 17.795288m65.5748 -17.795288l0 17.795288" fill-rule="nonzero"></path><path fill="#000000" fill-opacity="0.0" d="m352.61154 1092.4567l87.433075 0l0 17.795288l-87.433075 0z" fill-rule="nonzero"></path><path stroke="#000000" stroke-width="2.0" stroke-linejoin="round" stroke-linecap="butt" d="m363.54068 1092.4567l0 17.795288m65.5748 -17.795288l0 17.795288" fill-rule="nonzero"></path><path stroke="#000000" stroke-width="2.0" stroke-linejoin="round" stroke-linecap="butt" d="m352.61154 1092.4567l87.433075 0l0 17.795288l-87.433075 0z" fill-rule="nonzero"></path><path fill="#00ffff" d="m440.61154 817.8583l97.79788 0l0 17.795288l-97.79788 0z" fill-rule="nonzero"></path><path fill="#000000" fill-opacity="0.0" d="m452.83627 817.8583l0 17.795288m73.34842 -17.795288l0 17.795288" fill-rule="nonzero"></path><path fill="#000000" fill-opacity="0.0" d="m440.61154 817.8583l97.79788 0l0 17.795288l-97.79788 0z" fill-rule="nonzero"></path><path stroke="#000000" stroke-width="2.0" stroke-linejoin="round" stroke-linecap="butt" d="m452.83627 817.8583l0 17.795288m73.34842 -17.795288l0 17.795288" fill-rule="nonzero"></path><path stroke="#000000" stroke-width="2.0" stroke-linejoin="round" stroke-linecap="butt" d="m440.61154 817.8583l97.79788 0l0 17.795288l-97.79788 0z" fill-rule="nonzero"></path><path fill="#ffff00" d="m328.61154 820.45667l87.433075 0l0 17.0l-87.433075 0z" fill-rule="nonzero"></path><path fill="#000000" fill-opacity="0.0" d="m339.54068 820.45667l0 17.0m65.5748 -17.0l0 17.0" fill-rule="nonzero"></path><path fill="#000000" fill-opacity="0.0" d="m328.61154 820.45667l87.433075 0l0 17.0l-87.433075 0z" fill-rule="nonzero"></path><path stroke="#000000" stroke-width="2.0" stroke-linejoin="round" stroke-linecap="butt" d="m339.54068 820.45667l0 17.0m65.5748 -17.0l0 17.0" fill-rule="nonzero"></path><path stroke="#000000" stroke-width="2.0" stroke-linejoin="round" stroke-linecap="butt" d="m328.61154 820.45667l87.433075 0l0 17.0l-87.433075 0z" fill-rule="nonzero"></path><path fill="#0000ff" d="m417.66064 1074.8031l0 0c0 15.716187 -14.90506 28.456787 -33.29135 28.456787c-18.386292 0 -33.29132 -12.740601 -33.29132 -28.456787l14.2283325 0c0 7.8581543 8.53479 14.228394 19.062988 14.228394c10.528198 0 19.062988 -6.3702393 19.062988 -14.228394z" fill-rule="nonzero"></path><path stroke="#000000" stroke-width="2.0" stroke-linejoin="round" stroke-linecap="butt" d="m417.66064 1074.8031l0 0c0 15.716187 -14.90506 28.456787 -33.29135 28.456787c-18.386292 0 -33.29132 -12.740601 -33.29132 -28.456787l14.2283325 0c0 7.8581543 8.53479 14.228394 19.062988 14.228394c10.528198 0 19.062988 -6.3702393 19.062988 -14.228394z" fill-rule="nonzero"></path><path fill="#00ff00" d="m435.51935 1068.164c-9.95105 0.3330078 -21.943298 3.3321533 -26.02591 9.996582c-4.082611 6.6643066 -2.0420227 24.657959 1.5302429 29.989624c3.572235 5.331787 10.207245 1.6672363 19.90326 2.0007324c9.696045 0.33337402 31.894104 5.664795 38.27292 0c6.3788147 -5.664795 5.613434 -26.990967 0 -33.98877c-5.6134033 -6.997925 -23.729431 -8.331299 -33.68051 -7.998169z" fill-rule="nonzero"></path><path stroke="#000000" stroke-width="2.0" stroke-linejoin="round" stroke-linecap="butt" d="m435.51935 1068.164c-9.95105 0.3330078 -21.943298 3.3321533 -26.02591 9.996582c-4.082611 6.6643066 -2.0420227 24.657959 1.5302429 29.989624c3.572235 5.331787 10.207245 1.6672363 19.90326 2.0007324c9.696045 0.33337402 31.894104 5.664795 38.27292 0c6.3788147 -5.664795 5.613434 -26.990967 0 -33.98877c-5.6134033 -6.997925 -23.729431 -8.331299 -33.68051 -7.998169z" fill-rule="nonzero"></path><path fill="#00ffff" d="m488.61154 1092.4567l97.79788 0l0 17.795288l-97.79788 0z" fill-rule="nonzero"></path><path fill="#000000" fill-opacity="0.0" d="m500.83627 1092.4567l0 17.795288m73.34842 -17.795288l0 17.795288" fill-rule="nonzero"></path><path fill="#000000" fill-opacity="0.0" d="m488.61154 1092.4567l97.79788 0l0 17.795288l-97.79788 0z" fill-rule="nonzero"></path><path stroke="#000000" stroke-width="2.0" stroke-linejoin="round" stroke-linecap="butt" d="m500.83627 1092.4567l0 17.795288m73.34842 -17.795288l0 17.795288" fill-rule="nonzero"></path><path stroke="#000000" stroke-width="2.0" stroke-linejoin="round" stroke-linecap="butt" d="m488.61154 1092.4567l97.79788 0l0 17.795288l-97.79788 0z" fill-rule="nonzero"></path><path fill="#ff0000" d="m192.61154 92.456696l31.84253 0l0 17.795273l-31.84253 0z" fill-rule="nonzero"></path><path fill="#000000" fill-opacity="0.0" d="m196.59186 92.456696l0 17.795273m23.881897 -17.795273l0 17.795273" fill-rule="nonzero"></path><path fill="#000000" fill-opacity="0.0" d="m192.61154 92.456696l31.84253 0l0 17.795273l-31.84253 0z" fill-rule="nonzero"></path><path stroke="#000000" stroke-width="2.0" stroke-linejoin="round" stroke-linecap="butt" d="m196.59186 92.456696l0 17.795273m23.881897 -17.795273l0 17.795273" fill-rule="nonzero"></path><path stroke="#000000" stroke-width="2.0" stroke-linejoin="round" stroke-linecap="butt" d="m192.61154 92.456696l31.84253 0l0 17.795273l-31.84253 0z" fill-rule="nonzero"></path><path fill="#ff0000" d="m144.61154 92.456696l31.84253 0l0 17.795273l-31.84253 0z" fill-rule="nonzero"></path><path fill="#000000" fill-opacity="0.0" d="m148.59186 92.456696l0 17.795273m23.881897 -17.795273l0 17.795273" fill-rule="nonzero"></path><path fill="#000000" fill-opacity="0.0" d="m144.61154 92.456696l31.84253 0l0 17.795273l-31.84253 0z" fill-rule="nonzero"></path><path stroke="#000000" stroke-width="2.0" stroke-linejoin="round" stroke-linecap="butt" d="m148.59186 92.456696l0 17.795273m23.881897 -17.795273l0 17.795273" fill-rule="nonzero"></path><path stroke="#000000" stroke-width="2.0" stroke-linejoin="round" stroke-linecap="butt" d="m144.61154 92.456696l31.84253 0l0 17.795273l-31.84253 0z" fill-rule="nonzero"></path><path fill="#ff0000" d="m103.6378 437.83466l-6.725769 -31.122833l17.198189 -3.714447l6.7257767 31.122803z" fill-rule="nonzero"></path><path fill="#000000" fill-opacity="0.0" d="m102.79708 433.9443l17.198189 -3.7144775m-22.242516 -19.627655l17.198189 -3.714447" fill-rule="nonzero"></path><path fill="#000000" fill-opacity="0.0" d="m103.6378 437.83466l-6.725769 -31.122833l17.198189 -3.714447l6.7257767 31.122803z" fill-rule="nonzero"></path><path stroke="#000000" stroke-width="2.0" stroke-linejoin="round" stroke-linecap="butt" d="m102.79708 433.9443l17.198189 -3.7144775m-22.242516 -19.627655l17.198189 -3.714447" fill-rule="nonzero"></path><path stroke="#000000" stroke-width="2.0" stroke-linejoin="round" stroke-linecap="butt" d="m103.6378 437.83466l-6.725769 -31.122833l17.198189 -3.714447l6.7257767 31.122803z" fill-rule="nonzero"></path><path fill="#9900ff" d="m141.66364 411.73474l0 0c-6.4012756 1.3916016 -13.529465 -6.399353 -15.921249 -17.40158l0 0c-2.3917847 -11.002197 0.858551 -21.049347 7.259842 -22.440948l0 0c6.4012756 -1.391571 13.52948 6.3993835 15.921265 17.40158l0 0c2.3917847 11.002228 -0.8585663 21.049377 -7.259857 22.440948z" fill-rule="nonzero"></path><path stroke="#9900ff" stroke-width="2.0" stroke-linejoin="round" stroke-linecap="butt" d="m141.66364 411.73474l0 0c-6.4012756 1.3916016 -13.529465 -6.399353 -15.921249 -17.40158l0 0c-2.3917847 -11.002197 0.858551 -21.049347 7.259842 -22.440948l0 0c6.4012756 -1.391571 13.52948 6.3993835 15.921265 17.40158l0 0c2.3917847 11.002228 -0.8585663 21.049377 -7.259857 22.440948z" fill-rule="nonzero"></path><path fill="#ff0000" d="m90.809135 382.67178l-6.0263443 -31.26706l17.473679 -3.3678284l6.0263443 31.26706z" fill-rule="nonzero"></path><path fill="#000000" fill-opacity="0.0" d="m90.05585 378.7634l17.473679 -3.3678284m-21.993439 -20.082458l17.473679 -3.3678284" fill-rule="nonzero"></path><path fill="#000000" fill-opacity="0.0" d="m90.809135 382.67178l-6.0263443 -31.26706l17.473679 -3.3678284l6.0263443 31.26706z" fill-rule="nonzero"></path><path stroke="#000000" stroke-width="2.0" stroke-linejoin="round" stroke-linecap="butt" d="m90.05585 378.7634l17.473679 -3.3678284m-21.993439 -20.082458l17.473679 -3.3678284" fill-rule="nonzero"></path><path stroke="#000000" stroke-width="2.0" stroke-linejoin="round" stroke-linecap="butt" d="m90.809135 382.67178l-6.0263443 -31.26706l17.473679 -3.3678284l6.0263443 31.26706z" fill-rule="nonzero"></path><path fill="#9900ff" d="m129.4293 430.76944l0 0c-6.4012833 1.391571 -13.529472 -6.399353 -15.921257 -17.40158l0 0c-2.3917847 -11.002197 0.85855865 -21.049347 7.259842 -22.440948l0 0c6.4012833 -1.391571 13.529472 6.3993835 15.921257 17.40158l0 0c2.3917847 11.002197 -0.858551 21.049377 -7.259842 22.440948z" fill-rule="nonzero"></path><path stroke="#9900ff" stroke-width="2.0" stroke-linejoin="round" stroke-linecap="butt" d="m129.4293 430.76944l0 0c-6.4012833 1.391571 -13.529472 -6.399353 -15.921257 -17.40158l0 0c-2.3917847 -11.002197 0.85855865 -21.049347 7.259842 -22.440948l0 0c6.4012833 -1.391571 13.529472 6.3993835 15.921257 17.40158l0 0c2.3917847 11.002197 -0.858551 21.049377 -7.259842 22.440948z" fill-rule="nonzero"></path><path fill="#9900ff" d="m120.92882 391.6831l0 0c-6.4012833 1.3916016 -13.52948 -6.399353 -15.921265 -17.40158l0 0c-2.3917847 -11.002197 0.85855865 -21.049347 7.2598495 -22.440918l0 0c6.4012833 -1.3916016 13.529472 6.399353 15.921257 17.40155l0 0c2.3917847 11.002228 -0.85855865 21.049377 -7.259842 22.440948z" fill-rule="nonzero"></path><path stroke="#9900ff" stroke-width="2.0" stroke-linejoin="round" stroke-linecap="butt" d="m120.92882 391.6831l0 0c-6.4012833 1.3916016 -13.52948 -6.399353 -15.921265 -17.40158l0 0c-2.3917847 -11.002197 0.85855865 -21.049347 7.2598495 -22.440918l0 0c6.4012833 -1.3916016 13.529472 6.399353 15.921257 17.40155l0 0c2.3917847 11.002228 -0.85855865 21.049377 -7.259842 22.440948z" fill-rule="nonzero"></path><path fill="#ff0000" d="m360.61154 652.45667l31.84253 0l0 17.795288l-31.84253 0z" fill-rule="nonzero"></path><path fill="#000000" fill-opacity="0.0" d="m364.59186 652.45667l0 17.795288m23.881897 -17.795288l0 17.795288" fill-rule="nonzero"></path><path fill="#000000" fill-opacity="0.0" d="m360.61154 652.45667l31.84253 0l0 17.795288l-31.84253 0z" fill-rule="nonzero"></path><path stroke="#000000" stroke-width="2.0" stroke-linejoin="round" stroke-linecap="butt" d="m364.59186 652.45667l0 17.795288m23.881897 -17.795288l0 17.795288" fill-rule="nonzero"></path><path stroke="#000000" stroke-width="2.0" stroke-linejoin="round" stroke-linecap="butt" d="m360.61154 652.45667l31.84253 0l0 17.795288l-31.84253 0z" fill-rule="nonzero"></path><path fill="#ff0000" d="m408.61154 652.45667l31.84253 0l0 17.795288l-31.84253 0z" fill-rule="nonzero"></path><path fill="#000000" fill-opacity="0.0" d="m412.59186 652.45667l0 17.795288m23.881897 -17.795288l0 17.795288" fill-rule="nonzero"></path><path fill="#000000" fill-opacity="0.0" d="m408.61154 652.45667l31.84253 0l0 17.795288l-31.84253 0z" fill-rule="nonzero"></path><path stroke="#000000" stroke-width="2.0" stroke-linejoin="round" stroke-linecap="butt" d="m412.59186 652.45667l0 17.795288m23.881897 -17.795288l0 17.795288" fill-rule="nonzero"></path><path stroke="#000000" stroke-width="2.0" stroke-linejoin="round" stroke-linecap="butt" d="m408.61154 652.45667l31.84253 0l0 17.795288l-31.84253 0z" fill-rule="nonzero"></path><path fill="#ff0000" d="m392.61154 1020.45667l31.84253 0l0 17.795288l-31.84253 0z" fill-rule="nonzero"></path><path fill="#000000" fill-opacity="0.0" d="m396.59186 1020.45667l0 17.795288m23.881897 -17.795288l0 17.795288" fill-rule="nonzero"></path><path fill="#000000" fill-opacity="0.0" d="m392.61154 1020.45667l31.84253 0l0 17.795288l-31.84253 0z" fill-rule="nonzero"></path><path stroke="#000000" stroke-width="2.0" stroke-linejoin="round" stroke-linecap="butt" d="m396.59186 1020.45667l0 17.795288m23.881897 -17.795288l0 17.795288" fill-rule="nonzero"></path><path stroke="#000000" stroke-width="2.0" stroke-linejoin="round" stroke-linecap="butt" d="m392.61154 1020.45667l31.84253 0l0 17.795288l-31.84253 0z" fill-rule="nonzero"></path><path fill="#ff0000" d="m344.61154 1020.45667l31.84253 0l0 17.795288l-31.84253 0z" fill-rule="nonzero"></path><path fill="#000000" fill-opacity="0.0" d="m348.59186 1020.45667l0 17.795288m23.881897 -17.795288l0 17.795288" fill-rule="nonzero"></path><path fill="#000000" fill-opacity="0.0" d="m344.61154 1020.45667l31.84253 0l0 17.795288l-31.84253 0z" fill-rule="nonzero"></path><path stroke="#000000" stroke-width="2.0" stroke-linejoin="round" stroke-linecap="butt" d="m348.59186 1020.45667l0 17.795288m23.881897 -17.795288l0 17.795288" fill-rule="nonzero"></path><path stroke="#000000" stroke-width="2.0" stroke-linejoin="round" stroke-linecap="butt" d="m344.61154 1020.45667l31.84253 0l0 17.795288l-31.84253 0z" fill-rule="nonzero"></path><path fill="#000000" fill-opacity="0.0" d="m345.99933 1100.0004c-4.0 0 -15.8333435 0 -24.0 0c-8.1666565 0 -14.8333435 -0.16662598 -25.0 0c-10.1666565 0.16674805 -18.5 0.66674805 -36.0 1.0c-17.5 0.33337402 -43.5 1.0 -69.0 1.0c-25.5 0 -63.0 3.833374 -84.0 -1.0c-21.0 -4.833252 -32.5 -16.666626 -42.0 -28.0c-9.5 -11.333252 -14.166668 -24.666626 -15.0 -40.0c-0.83333206 -15.333313 3.333332 -39.166626 10.0 -51.99994c6.666664 -12.833374 20.166664 -21.166687 30.0 -25.0c9.833336 -3.833374 21.5 0.5 29.0 2.0c7.5 1.5 11.0 4.166626 16.0 7.0c5.0 2.833313 7.5 4.666626 14.0 10.0c6.5 5.333313 16.333328 15.166626 25.0 22.0c8.666672 6.833313 15.833328 14.0 27.0 19.0c11.166672 5.0 24.5 8.499939 40.0 10.999939c15.5 2.5 38.0 3.333374 53.0 4.0c15.0 0.66674805 30.833344 0 37.0 0" fill-rule="nonzero"></path><path stroke="#000000" stroke-width="16.0" stroke-linejoin="round" stroke-linecap="butt" d="m345.99933 1100.0004c-4.0 0 -15.8333435 0 -24.0 0c-8.1666565 0 -14.8333435 -0.16662598 -25.0 0c-10.1666565 0.16674805 -18.5 0.66674805 -36.0 1.0c-17.5 0.33337402 -43.5 1.0 -69.0 1.0c-25.5 0 -63.0 3.833374 -84.0 -1.0c-21.0 -4.833252 -32.5 -16.666626 -42.0 -28.0c-9.5 -11.333252 -14.166668 -24.666626 -15.0 -40.0c-0.83333206 -15.333313 3.333332 -39.166626 10.0 -51.99994c6.666664 -12.833374 20.166664 -21.166687 30.0 -25.0c9.833336 -3.833374 21.5 0.5 29.0 2.0c7.5 1.5 11.0 4.166626 16.0 7.0c5.0 2.833313 7.5 4.666626 14.0 10.0c6.5 5.333313 16.333328 15.166626 25.0 22.0c8.666672 6.833313 15.833328 14.0 27.0 19.0c11.166672 5.0 24.5 8.499939 40.0 10.999939c15.5 2.5 38.0 3.333374 53.0 4.0c15.0 0.66674805 30.833344 0 37.0 0" fill-rule="nonzero"></path></g></svg>

