<?xml version="1.0" encoding="UTF-8" standalone="no"?>
<!-- Created with Inkscape (http://www.inkscape.org/) -->

<svg
   width="383.31763mm"
   height="180.70377mm"
   viewBox="0 0 383.31763 180.70377"
   version="1.1"
   id="svg8641"
   inkscape:version="1.1.1 (eb90963e84, 2021-10-02)"
   sodipodi:docname="logo.svg"
   xmlns:inkscape="http://www.inkscape.org/namespaces/inkscape"
   xmlns:sodipodi="http://sodipodi.sourceforge.net/DTD/sodipodi-0.dtd"
   xmlns="http://www.w3.org/2000/svg"
   xmlns:svg="http://www.w3.org/2000/svg">
  <sodipodi:namedview
     id="namedview8643"
     pagecolor="#ffffff"
     bordercolor="#666666"
     borderopacity="1.0"
     inkscape:pageshadow="2"
     inkscape:pageopacity="0.0"
     inkscape:pagecheckerboard="0"
     inkscape:document-units="mm"
     showgrid="false"
     fit-margin-top="0"
     fit-margin-left="0"
     fit-margin-right="0"
     fit-margin-bottom="0"
     inkscape:zoom="0.5499273"
     inkscape:cx="481.88188"
     inkscape:cy="440.96738"
     inkscape:window-width="2488"
     inkscape:window-height="1376"
     inkscape:window-x="72"
     inkscape:window-y="27"
     inkscape:window-maximized="1"
     inkscape:current-layer="layer1" />
  <defs
     id="defs8638" />
  <g
     inkscape:label="Layer 1"
     inkscape:groupmode="layer"
     id="layer1"
     transform="translate(398.16397,90.692085)">
    <path
       style="display:inline;fill:#03967c;fill-opacity:1;stroke-width:0.264583"
       d="m -309.31474,58.06005 c -9.95098,-1.28307 -20.2752,-5.58955 -22.14244,-9.23615 -0.86674,-1.69269 -1.23477,-4.97417 -1.06759,-9.51893 0.19705,-5.35665 0.79238,-7.07851 2.59495,-7.50523 1.02,-0.24146 2.13948,0.17303 4.87328,1.80434 5.28749,3.15516 11.00954,5.43096 16.00638,6.36613 3.7741,0.70633 10.28232,0.65145 13.09687,-0.11045 3.14503,-0.85135 5.24193,-1.93726 7.02494,-3.63797 3.58526,-3.41975 4.82164,-8.67099 3.12095,-13.25545 -0.45171,-1.21764 -1.02732,-1.98737 -2.8426,-3.80125 -2.86699,-2.86477 -5.51953,-4.44606 -13.35318,-7.96037 -10.83615,-4.86128 -15.64502,-7.63849 -19.51474,-11.27009 -3.71484,-3.48625 -6.7461,-8.206748 -8.02303,-12.494064 -1.17914,-3.958984 -1.53005,-10.391069 -0.82284,-15.082351 1.42039,-9.422188 6.98745,-17.032917 15.62509,-21.36108 11.62311,-5.824127 29.39237,-5.678987 41.41956,0.338313 2.6834,1.342527 4.03565,2.633495 4.52647,4.321328 0.48449,1.666087 0.4903,11.864107 0.008,13.475351 -0.85363,2.84983 -1.8649,2.846162 -7.50888,-0.02723 -4.59318,-2.33843 -9.55608,-4.144322 -12.91255,-4.698603 -2.83691,-0.468482 -7.70113,-0.409535 -9.78958,0.118634 -6.18661,1.564595 -9.53999,5.766829 -9.206,11.536333 0.333,5.75241 4.44477,9.521518 15.83075,14.511462 12.19741,5.345557 16.93996,8.037877 21.48812,12.198717 3.40229,3.11254 6.73169,8.65929 7.87058,13.1123 0.83536,3.26623 1.13815,7.56753 0.807,11.46409 -0.47979,5.6457 -1.75508,9.86997 -4.23493,14.02779 -5.48206,9.19147 -14.76322,14.71653 -27.84499,16.57607 -2.97972,0.42356 -12.07607,0.48914 -15.02928,0.10836 z m 176.4062,-1.30591 c -2.57252,-0.40368 -3.68475,-0.79725 -4.46884,-1.58134 l -0.75195,-0.75194 V 3.76301 -46.894842 l 0.72761,-1.388782 c 0.57319,-1.094044 1.03645,-1.563711 2.18281,-2.213025 l 1.45521,-0.824243 26.69384,-0.07229 c 29.71374,-0.08047 27.44486,-0.220842 28.4557,1.76054 1.37787,2.700838 1.38223,11.905745 0.007,14.601553 -0.99859,1.957438 0.31186,1.834155 -19.49659,1.834155 h -17.80051 v 14.2875 14.287504 l 16.6026,0.004 c 12.83888,0.003 16.75228,0.0796 17.2629,0.33795 0.36314,0.18373 0.93221,0.82701 1.26455,1.42951 1.31816,2.38952 1.37353,11.32705 0.0882,14.23274 -0.92241,2.08525 -0.005,1.98756 -18.66865,1.98756 h -16.54961 l -0.004,20.17448 c -0.003,15.48517 -0.0799,20.3223 -0.33073,20.81043 -0.47371,0.92176 -1.4673,1.57363 -3.11372,2.04288 -1.71535,0.48889 -11.13393,0.73666 -13.55587,0.35662 z m -261.73433,-0.88635 c -1.54335,-0.72781 -2.30472,-1.48469 -2.96393,-2.94646 -0.4517,-1.0016 -0.4789,-3.5864 -0.54011,-51.32556 -0.0509,-39.664265 0.005,-50.405007 0.26458,-50.906782 0.96524,-1.865558 3.64194,-2.485265 10.78009,-2.495793 5.43794,-0.008 7.83427,0.284824 9.56791,1.169263 0.54875,0.279953 1.12077,0.738912 1.27116,1.01991 0.18501,0.345707 0.27343,14.632755 0.27343,44.184552 v 43.67365 h 17.42386 17.42386 l 0.68078,0.63092 c 0.37443,0.347 0.8713,1.26974 1.10416,2.05052 0.90426,3.03199 0.76457,11.19715 -0.23238,13.58321 -0.19725,0.47207 -0.63233,1.11331 -0.96685,1.42496 l -0.60821,0.56664 -26.07772,-0.003 -26.07771,-0.003 -1.32292,-0.62385 z m 153.03105,0.27388 c -1.48577,-0.5463 -2.5731,-1.43994 -3.21673,-2.6437 l -0.58932,-1.1022 -0.0689,-49.33437 c -0.0761,-54.512626 -0.18591,-50.895783 1.59619,-52.586729 2.01891,-1.915645 0.58791,-1.796841 21.49146,-1.784218 20.3273,0.01228 21.806,0.09198 29.08142,1.567463 10.43732,2.116733 19.66342,7.214034 25.74929,14.226146 4.69057,5.404448 8.40811,13.092747 10.08889,20.864952 2.16884,10.029106 2.0131,24.212976 -0.37739,34.370716 -1.00565,4.27319 -2.12338,7.49339 -3.85715,11.1125 -2.35338,4.91248 -4.57417,8.08829 -8.14716,11.65073 -7.73705,7.7142 -16.55131,11.49576 -31.50352,13.51589 -3.52106,0.47571 -38.99932,0.60161 -40.24708,0.14282 z m 37.33666,-17.72724 c 7.13316,-1.16718 12.27922,-3.68316 16.41847,-8.02722 3.12865,-3.28344 5.14416,-6.76463 6.7123,-11.59352 3.26208,-10.04515 2.9738,-25.54012 -0.64515,-34.676389 -3.19171,-8.057658 -9.29278,-13.807368 -17.32625,-16.32844 -4.23814,-1.330021 -6.51153,-1.576136 -15.80885,-1.711462 l -8.6651,-0.126125 V 2.52448 39.09768 l 8.40052,-0.13598 c 5.74554,-0.093 9.19492,-0.26598 10.91406,-0.54727 z"
       id="path21"
       sodipodi:nodetypes="ssssssssssssssssscsssssssssssscscccsscssssccccscsscccscccsccsssscccsssscccccsscssssssssssscssssscccsc" />
    <circle
       style="display:inline;fill:#ec822c;fill-opacity:1;fill-rule:evenodd"
       id="path238"
       cx="-30.776962"
       cy="-23.255684"
       r="15.930618" />
    <circle
       style="display:inline;fill:#0892cc;fill-opacity:1;fill-rule:evenodd"
       id="path238-3"
       cx="-57.851868"
       cy="-60.47147"
       r="15.930618" />
    <circle
       style="display:inline;fill:#abb62c;fill-opacity:1;fill-rule:evenodd"
       id="path238-3-3"
       cx="-101.57085"
       cy="-74.761467"
       r="15.930618" />
    <circle
       style="display:inline;fill:#e43a2c;fill-opacity:1;fill-rule:evenodd"
       id="path238-3-3-1"
       cx="-31.056259"
       cy="22.640869"
       r="15.930618" />
    <circle
       style="display:inline;fill:#2c5a24;fill-opacity:1;fill-rule:evenodd"
       id="path238-3-3-1-8"
       cx="-57.937164"
       cy="59.862686"
       r="15.930618" />
    <circle
       style="display:inline;fill:#fcb22c;fill-opacity:1;fill-rule:evenodd"
       id="path238-3-3-1-8-5"
       cx="-101.65126"
       cy="74.081055"
       r="15.930618" />
  </g>
</svg>
